solid OpenSCAD_Model
  facet normal -1 0 0
    outer loop
      vertex 1.83 1.75 4.1225
      vertex 1.83 0.378745 7.3675
      vertex 1.83 1.75 7.3675
    endloop
  endfacet
  facet normal -1 0 -0
    outer loop
      vertex 1.83 0.378745 7.3675
      vertex 1.83 1.75 4.1225
      vertex 1.83 0.163212 4.1225
    endloop
  endfacet
  facet normal -0 0 1
    outer loop
      vertex 3.37149 1.75 9.53
      vertex 15.1885 0.522378 9.53
      vertex 15.1885 1.75 9.53
    endloop
  endfacet
  facet normal 0 0 1
    outer loop
      vertex 15.1885 0.522378 9.53
      vertex 3.37149 1.75 9.53
      vertex 3.37149 0.522378 9.53
    endloop
  endfacet
  facet normal 1 -0 0
    outer loop
      vertex 16.73 0.378745 7.3675
      vertex 16.73 1.75 4.1225
      vertex 16.73 1.75 7.3675
    endloop
  endfacet
  facet normal 1 0 0
    outer loop
      vertex 16.73 1.75 4.1225
      vertex 16.73 0.378745 7.3675
      vertex 16.73 0.163212 4.1225
    endloop
  endfacet
  facet normal 0 0 -1
    outer loop
      vertex 3.37149 0.0195793 1.96
      vertex 15.1885 1.75 1.96
      vertex 15.1885 0.0195793 1.96
    endloop
  endfacet
  facet normal -0 0 -1
    outer loop
      vertex 15.1885 1.75 1.96
      vertex 3.37149 0.0195793 1.96
      vertex 3.37149 1.75 1.96
    endloop
  endfacet
  facet normal 0 1 -0
    outer loop
      vertex 15.1885 1.75 1.96
      vertex 14.3026 1.75 3.4975
      vertex 16.726 1.75 3.4975
    endloop
  endfacet
  facet normal 0 1 0
    outer loop
      vertex 13.7114 1.75 2.90625
      vertex 15.1885 1.75 1.96
      vertex 4.84862 1.75 2.90625
    endloop
  endfacet
  facet normal 0 1 0
    outer loop
      vertex 14.3026 1.75 3.4975
      vertex 15.1885 1.75 1.96
      vertex 13.7114 1.75 2.90625
    endloop
  endfacet
  facet normal 0 1 0
    outer loop
      vertex 3.37149 1.75 1.96
      vertex 4.25737 1.75 3.4975
      vertex 4.84862 1.75 2.90625
    endloop
  endfacet
  facet normal 0 1 0
    outer loop
      vertex 4.25737 1.75 3.4975
      vertex 3.37149 1.75 1.96
      vertex 1.83399 1.75 3.4975
    endloop
  endfacet
  facet normal 0 1 0
    outer loop
      vertex 3.37149 1.75 1.96
      vertex 4.84862 1.75 2.90625
      vertex 15.1885 1.75 1.96
    endloop
  endfacet
  facet normal 0 1 0
    outer loop
      vertex 15.1885 1.75 9.53
      vertex 13.7114 1.75 8.58375
      vertex 3.37149 1.75 9.53
    endloop
  endfacet
  facet normal 0 1 0
    outer loop
      vertex 14.3026 1.75 7.9925
      vertex 15.1885 1.75 9.53
      vertex 16.726 1.75 7.9925
    endloop
  endfacet
  facet normal 0 1 0
    outer loop
      vertex 15.1885 1.75 9.53
      vertex 14.3026 1.75 7.9925
      vertex 13.7114 1.75 8.58375
    endloop
  endfacet
  facet normal 0 1 -0
    outer loop
      vertex 4.84862 1.75 8.58375
      vertex 3.37149 1.75 9.53
      vertex 13.7114 1.75 8.58375
    endloop
  endfacet
  facet normal 0 1 -0
    outer loop
      vertex 4.25737 1.75 7.9925
      vertex 3.37149 1.75 9.53
      vertex 4.84862 1.75 8.58375
    endloop
  endfacet
  facet normal 0 1 0
    outer loop
      vertex 3.37149 1.75 9.53
      vertex 4.25737 1.75 7.9925
      vertex 1.83399 1.75 7.9925
    endloop
  endfacet
  facet normal 0 -1 0
    outer loop
      vertex 15.88 1.75 4.12
      vertex 16.73 1.75 4.1225
      vertex 15.88 1.75 4.1225
    endloop
  endfacet
  facet normal 0 -1 -0
    outer loop
      vertex 16.73 1.75 4.1225
      vertex 15.88 1.75 4.12
      vertex 17.23 1.75 4.12
    endloop
  endfacet
  facet normal 0 -1 0
    outer loop
      vertex 16.73 1.75 7.3675
      vertex 15.88 1.75 7.37
      vertex 15.88 1.75 7.3675
    endloop
  endfacet
  facet normal 0 -1 0
    outer loop
      vertex 15.88 1.75 7.37
      vertex 16.73 1.75 7.3675
      vertex 17.23 1.75 7.37
    endloop
  endfacet
  facet normal 0 -1 0
    outer loop
      vertex 16.73 1.75 4.1225
      vertex 17.23 1.75 7.37
      vertex 16.73 1.75 7.3675
    endloop
  endfacet
  facet normal 0 -1 -0
    outer loop
      vertex 17.23 1.75 7.37
      vertex 16.73 1.75 4.1225
      vertex 17.23 1.75 4.12
    endloop
  endfacet
  facet normal 0 -1 0
    outer loop
      vertex 1.33 1.75 7.37
      vertex 1.83 1.75 4.1225
      vertex 1.83 1.75 7.3675
    endloop
  endfacet
  facet normal 0 -1 0
    outer loop
      vertex 1.33 1.75 4.12
      vertex 1.83 1.75 4.1225
      vertex 1.33 1.75 7.37
    endloop
  endfacet
  facet normal 0 -1 0
    outer loop
      vertex 2.68 1.75 4.12
      vertex 1.83 1.75 4.1225
      vertex 1.33 1.75 4.12
    endloop
  endfacet
  facet normal 0 -1 0
    outer loop
      vertex 1.83 1.75 4.1225
      vertex 2.68 1.75 4.12
      vertex 2.68 1.75 4.1225
    endloop
  endfacet
  facet normal 0 -1 0
    outer loop
      vertex 1.83 1.75 7.3675
      vertex 2.68 1.75 7.37
      vertex 1.33 1.75 7.37
    endloop
  endfacet
  facet normal 0 -1 -0
    outer loop
      vertex 2.68 1.75 7.37
      vertex 1.83 1.75 7.3675
      vertex 2.68 1.75 7.3675
    endloop
  endfacet
  facet normal 0 0 0
    outer loop
      vertex 2.68 1.75 4.1225
      vertex 2.68 1.75 4.12
      vertex 2.68 1.75 7.37
    endloop
  endfacet
  facet normal 0 0 0
    outer loop
      vertex 2.68 1.75 7.3675
      vertex 2.68 1.75 4.1225
      vertex 2.68 1.75 7.37
    endloop
  endfacet
  facet normal -0.707107 0 -0.707107
    outer loop
      vertex 3.37149 1.75 1.96
      vertex 1.83399 0.1217 3.4975
      vertex 1.83399 1.75 3.4975
    endloop
  endfacet
  facet normal -0.707107 0 -0.707107
    outer loop
      vertex 1.83399 0.1217 3.4975
      vertex 3.37149 1.75 1.96
      vertex 3.37149 0.0195793 1.96
    endloop
  endfacet
  facet normal -0.707107 0 0.707107
    outer loop
      vertex 1.83399 1.75 7.9925
      vertex 3.37149 0.522378 9.53
      vertex 3.37149 1.75 9.53
    endloop
  endfacet
  facet normal -0.707107 0 0.707107
    outer loop
      vertex 3.37149 0.522378 9.53
      vertex 1.83399 1.75 7.9925
      vertex 1.83399 0.420257 7.9925
    endloop
  endfacet
  facet normal 0.707107 -0 0.707107
    outer loop
      vertex 15.1885 0.522378 9.53
      vertex 16.726 1.75 7.9925
      vertex 15.1885 1.75 9.53
    endloop
  endfacet
  facet normal 0.707107 0 0.707107
    outer loop
      vertex 16.726 1.75 7.9925
      vertex 15.1885 0.522378 9.53
      vertex 16.726 0.420257 7.9925
    endloop
  endfacet
  facet normal 0.707107 0 -0.707107
    outer loop
      vertex 16.726 0.1217 3.4975
      vertex 15.1885 1.75 1.96
      vertex 16.726 1.75 3.4975
    endloop
  endfacet
  facet normal 0.707107 0 -0.707107
    outer loop
      vertex 15.1885 1.75 1.96
      vertex 16.726 0.1217 3.4975
      vertex 15.1885 0.0195793 1.96
    endloop
  endfacet
  facet normal -0.998026 0 0.0627958
    outer loop
      vertex 0.00788593 -0.849999 10.6153
      vertex 0 0.586141 10.49
      vertex 0 -0.849999 10.49
    endloop
  endfacet
  facet normal -0.998026 0 0.0627958
    outer loop
      vertex 0 0.586141 10.49
      vertex 0.00788593 -0.849999 10.6153
      vertex 0.00788593 0.594466 10.6153
    endloop
  endfacet
  facet normal 0.951056 -0 0.309019
    outer loop
      vertex 18.4898 -0.849999 10.8581
      vertex 18.5286 0.602659 10.7387
      vertex 18.4898 0.610592 10.8581
    endloop
  endfacet
  facet normal 0.951056 0 0.309019
    outer loop
      vertex 18.5286 0.602659 10.7387
      vertex 18.4898 -0.849999 10.8581
      vertex 18.5286 -0.849999 10.7387
    endloop
  endfacet
  facet normal -0.982288 0 0.187377
    outer loop
      vertex 0.0314169 -0.849999 10.7387
      vertex 0.00788593 0.594466 10.6153
      vertex 0.00788593 -0.849999 10.6153
    endloop
  endfacet
  facet normal -0.982288 0 0.187377
    outer loop
      vertex 0.00788593 0.594466 10.6153
      vertex 0.0314169 -0.849999 10.7387
      vertex 0.0314169 0.602659 10.7387
    endloop
  endfacet
  facet normal -0 0 1
    outer loop
      vertex 0.93721 0.65243 11.488
      vertex 17.6228 -0.849999 11.488
      vertex 17.6228 0.65243 11.488
    endloop
  endfacet
  facet normal 0 0 1
    outer loop
      vertex 17.6228 -0.849999 11.488
      vertex 0.93721 0.65243 11.488
      vertex 0.93721 -0.849999 11.488
    endloop
  endfacet
  facet normal 0 -1 0
    outer loop
      vertex 0 -0.849999 10.49
      vertex 0.93721 -0.849999 11.488
      vertex 0.812619 -0.849999 11.4723
    endloop
  endfacet
  facet normal 0 -1 0
    outer loop
      vertex 0.93721 -0.849999 11.488
      vertex 0.93721 -0.849999 0.00197411
      vertex 17.6228 -0.849999 11.488
    endloop
  endfacet
  facet normal 0 -1 0
    outer loop
      vertex 0 -0.849999 10.49
      vertex 0.812619 -0.849999 11.4723
      vertex 0.690984 -0.849999 11.4411
    endloop
  endfacet
  facet normal 0 -1 0
    outer loop
      vertex 17.6228 -0.849999 0.00197411
      vertex 17.6228 -0.849999 11.488
      vertex 0.93721 -0.849999 0.00197411
    endloop
  endfacet
  facet normal 0 -1 0
    outer loop
      vertex 0 -0.849999 10.49
      vertex 0.690984 -0.849999 11.4411
      vertex 0.574222 -0.849999 11.3948
    endloop
  endfacet
  facet normal -0 -1 0
    outer loop
      vertex 18.56 -0.849999 10.49
      vertex 17.6228 -0.849999 11.488
      vertex 17.6228 -0.849999 0.00197411
    endloop
  endfacet
  facet normal 0 -1 0
    outer loop
      vertex 0 -0.849999 10.49
      vertex 0.574222 -0.849999 11.3948
      vertex 0.464173 -0.849999 11.3343
    endloop
  endfacet
  facet normal 0 -1 -0
    outer loop
      vertex 0.93721 -0.849999 11.488
      vertex 0 -0.849999 10.49
      vertex 0.93721 -0.849999 0.00197411
    endloop
  endfacet
  facet normal 0 -1 0
    outer loop
      vertex 0 -0.849999 10.49
      vertex 0.464173 -0.849999 11.3343
      vertex 0.362576 -0.849999 11.2605
    endloop
  endfacet
  facet normal 0 -1 0
    outer loop
      vertex 17.6228 -0.849999 11.488
      vertex 18.56 -0.849999 10.49
      vertex 17.7474 -0.849999 11.4723
    endloop
  endfacet
  facet normal 0 -1 0
    outer loop
      vertex 0 -0.849999 10.49
      vertex 0.362576 -0.849999 11.2605
      vertex 0.271031 -0.849999 11.1745
    endloop
  endfacet
  facet normal 0 -1 0
    outer loop
      vertex 17.9858 -0.849999 11.3948
      vertex 18.56 -0.849999 10.49
      vertex 18.0958 -0.849999 11.3343
    endloop
  endfacet
  facet normal 0 -1 0
    outer loop
      vertex 0 -0.849999 10.49
      vertex 0.271031 -0.849999 11.1745
      vertex 0.190984 -0.849999 11.0778
    endloop
  endfacet
  facet normal 0 -1 0
    outer loop
      vertex 18.0958 -0.849999 11.3343
      vertex 18.56 -0.849999 10.49
      vertex 18.1974 -0.849999 11.2605
    endloop
  endfacet
  facet normal 0 -1 0
    outer loop
      vertex 0 -0.849999 10.49
      vertex 0.190984 -0.849999 11.0778
      vertex 0.123693 -0.849999 10.9718
    endloop
  endfacet
  facet normal 0 -1 0
    outer loop
      vertex 18.1974 -0.849999 11.2605
      vertex 18.56 -0.849999 10.49
      vertex 18.289 -0.849999 11.1745
    endloop
  endfacet
  facet normal 0 -1 0
    outer loop
      vertex 0 -0.849999 10.49
      vertex 0.123693 -0.849999 10.9718
      vertex 0.0702238 -0.849999 10.8581
    endloop
  endfacet
  facet normal 0 -1 0
    outer loop
      vertex 18.289 -0.849999 11.1745
      vertex 18.56 -0.849999 10.49
      vertex 18.369 -0.849999 11.0778
    endloop
  endfacet
  facet normal 0 -1 0
    outer loop
      vertex 0 -0.849999 10.49
      vertex 0.0702238 -0.849999 10.8581
      vertex 0.0314169 -0.849999 10.7387
    endloop
  endfacet
  facet normal 0 -1 0
    outer loop
      vertex 18.369 -0.849999 11.0778
      vertex 18.56 -0.849999 10.49
      vertex 18.4363 -0.849999 10.9718
    endloop
  endfacet
  facet normal 0 -1 0
    outer loop
      vertex 0 -0.849999 10.49
      vertex 0.0314169 -0.849999 10.7387
      vertex 0.00788593 -0.849999 10.6153
    endloop
  endfacet
  facet normal 0 -1 0
    outer loop
      vertex 18.4363 -0.849999 10.9718
      vertex 18.56 -0.849999 10.49
      vertex 18.4898 -0.849999 10.8581
    endloop
  endfacet
  facet normal 0 -1 0
    outer loop
      vertex 18.4898 -0.849999 10.8581
      vertex 18.56 -0.849999 10.49
      vertex 18.5286 -0.849999 10.7387
    endloop
  endfacet
  facet normal 0 -1 0
    outer loop
      vertex 18.5286 -0.849999 10.7387
      vertex 18.56 -0.849999 10.49
      vertex 18.5521 -0.849999 10.6153
    endloop
  endfacet
  facet normal 0 -1 0
    outer loop
      vertex 0.93721 -0.849999 0.00197411
      vertex 0 -0.849999 10.49
      vertex 0 -0.849999 1
    endloop
  endfacet
  facet normal 0 -1 0
    outer loop
      vertex 17.7474 -0.849999 11.4723
      vertex 18.56 -0.849999 10.49
      vertex 17.869 -0.849999 11.4411
    endloop
  endfacet
  facet normal 0 -1 0
    outer loop
      vertex 0.93721 -0.849999 0.00197411
      vertex 0 -0.849999 1
      vertex 0.00788593 -0.849999 0.874667
    endloop
  endfacet
  facet normal 0 -1 0
    outer loop
      vertex 17.869 -0.849999 11.4411
      vertex 18.56 -0.849999 10.49
      vertex 17.9858 -0.849999 11.3948
    endloop
  endfacet
  facet normal 0 -1 0
    outer loop
      vertex 0.93721 -0.849999 0.00197411
      vertex 0.00788593 -0.849999 0.874667
      vertex 0.0314169 -0.849999 0.75131
    endloop
  endfacet
  facet normal 0 -1 -0
    outer loop
      vertex 18.56 -0.849999 10.49
      vertex 17.6228 -0.849999 0.00197411
      vertex 18.56 -0.849999 1
    endloop
  endfacet
  facet normal 0 -1 0
    outer loop
      vertex 0.93721 -0.849999 0.00197411
      vertex 0.0314169 -0.849999 0.75131
      vertex 0.0702238 -0.849999 0.631876
    endloop
  endfacet
  facet normal 0 -1 0
    outer loop
      vertex 18.56 -0.849999 1
      vertex 17.6228 -0.849999 0.00197411
      vertex 18.5521 -0.849999 0.874667
    endloop
  endfacet
  facet normal 0 -1 0
    outer loop
      vertex 0.93721 -0.849999 0.00197411
      vertex 0.0702238 -0.849999 0.631876
      vertex 0.123693 -0.849999 0.518247
    endloop
  endfacet
  facet normal 0 -1 0
    outer loop
      vertex 18.5521 -0.849999 0.874667
      vertex 17.6228 -0.849999 0.00197411
      vertex 18.5286 -0.849999 0.75131
    endloop
  endfacet
  facet normal 0 -1 0
    outer loop
      vertex 0.93721 -0.849999 0.00197411
      vertex 0.123693 -0.849999 0.518247
      vertex 0.190984 -0.849999 0.412215
    endloop
  endfacet
  facet normal 0 -1 0
    outer loop
      vertex 18.5286 -0.849999 0.75131
      vertex 17.6228 -0.849999 0.00197411
      vertex 18.4898 -0.849999 0.631876
    endloop
  endfacet
  facet normal 0 -1 0
    outer loop
      vertex 0.93721 -0.849999 0.00197411
      vertex 0.190984 -0.849999 0.412215
      vertex 0.271031 -0.849999 0.315454
    endloop
  endfacet
  facet normal 0 -1 0
    outer loop
      vertex 18.4898 -0.849999 0.631876
      vertex 17.6228 -0.849999 0.00197411
      vertex 18.4363 -0.849999 0.518247
    endloop
  endfacet
  facet normal 0 -1 0
    outer loop
      vertex 0.93721 -0.849999 0.00197411
      vertex 0.271031 -0.849999 0.315454
      vertex 0.362576 -0.849999 0.229487
    endloop
  endfacet
  facet normal 0 -1 0
    outer loop
      vertex 18.4363 -0.849999 0.518247
      vertex 17.6228 -0.849999 0.00197411
      vertex 18.369 -0.849999 0.412215
    endloop
  endfacet
  facet normal 0 -1 0
    outer loop
      vertex 0.93721 -0.849999 0.00197411
      vertex 0.362576 -0.849999 0.229487
      vertex 0.464173 -0.849999 0.155673
    endloop
  endfacet
  facet normal 0 -1 0
    outer loop
      vertex 18.369 -0.849999 0.412215
      vertex 17.6228 -0.849999 0.00197411
      vertex 18.289 -0.849999 0.315454
    endloop
  endfacet
  facet normal 0 -1 0
    outer loop
      vertex 0.93721 -0.849999 0.00197411
      vertex 0.464173 -0.849999 0.155673
      vertex 0.574222 -0.849999 0.0951738
    endloop
  endfacet
  facet normal 0 -1 0
    outer loop
      vertex 18.289 -0.849999 0.315454
      vertex 17.6228 -0.849999 0.00197411
      vertex 18.1974 -0.849999 0.229487
    endloop
  endfacet
  facet normal 0 -1 0
    outer loop
      vertex 0.93721 -0.849999 0.00197411
      vertex 0.574222 -0.849999 0.0951738
      vertex 0.690984 -0.849999 0.0489435
    endloop
  endfacet
  facet normal 0 -1 0
    outer loop
      vertex 18.1974 -0.849999 0.229487
      vertex 17.6228 -0.849999 0.00197411
      vertex 18.0958 -0.849999 0.155673
    endloop
  endfacet
  facet normal 0 -1 0
    outer loop
      vertex 0.93721 -0.849999 0.00197411
      vertex 0.690984 -0.849999 0.0489435
      vertex 0.812619 -0.849999 0.0177135
    endloop
  endfacet
  facet normal 0 -1 0
    outer loop
      vertex 18.0958 -0.849999 0.155673
      vertex 17.6228 -0.849999 0.00197411
      vertex 17.9858 -0.849999 0.0951738
    endloop
  endfacet
  facet normal 0 -1 0
    outer loop
      vertex 17.9858 -0.849999 0.0951738
      vertex 17.6228 -0.849999 0.00197411
      vertex 17.869 -0.849999 0.0489435
    endloop
  endfacet
  facet normal 0 -1 0
    outer loop
      vertex 17.869 -0.849999 0.0489435
      vertex 17.6228 -0.849999 0.00197411
      vertex 17.7474 -0.849999 0.0177135
    endloop
  endfacet
  facet normal -1 0 0
    outer loop
      vertex 0 -0.849999 10.49
      vertex 0 -0.0441838 1
      vertex 0 -0.849999 1
    endloop
  endfacet
  facet normal -1 0 0
    outer loop
      vertex 0 -0.0441838 1
      vertex 0 -0.849999 10.49
      vertex 0 0.586141 10.49
    endloop
  endfacet
  facet normal 0.368126 0 -0.929776
    outer loop
      vertex 17.869 -0.107353 0.0489435
      vertex 17.9858 -0.849999 0.0951738
      vertex 17.869 -0.849999 0.0489435
    endloop
  endfacet
  facet normal 0.368126 0 -0.929776
    outer loop
      vertex 17.9858 -0.849999 0.0951738
      vertex 17.869 -0.107353 0.0489435
      vertex 17.9858 -0.104282 0.0951738
    endloop
  endfacet
  facet normal 0 0 -1
    outer loop
      vertex 0.93721 -0.849999 0.00197411
      vertex 17.6228 -0.110473 0.00197411
      vertex 17.6228 -0.849999 0.00197411
    endloop
  endfacet
  facet normal -0 0 -1
    outer loop
      vertex 17.6228 -0.110473 0.00197411
      vertex 0.93721 -0.849999 0.00197411
      vertex 0.93721 -0.110473 0.00197411
    endloop
  endfacet
  facet normal -0.368131 0 0.929774
    outer loop
      vertex 0.574222 0.64624 11.3948
      vertex 0.690984 -0.849999 11.4411
      vertex 0.690984 0.64931 11.4411
    endloop
  endfacet
  facet normal -0.368131 0 0.929774
    outer loop
      vertex 0.690984 -0.849999 11.4411
      vertex 0.574222 0.64624 11.3948
      vertex 0.574222 -0.849999 11.3948
    endloop
  endfacet
  facet normal -0.125333 0 -0.992115
    outer loop
      vertex 0.812619 -0.849999 0.0177135
      vertex 0.93721 -0.110473 0.00197411
      vertex 0.93721 -0.849999 0.00197411
    endloop
  endfacet
  facet normal -0.125333 0 -0.992115
    outer loop
      vertex 0.93721 -0.110473 0.00197411
      vertex 0.812619 -0.849999 0.0177135
      vertex 0.812619 -0.109427 0.0177135
    endloop
  endfacet
  facet normal -0.770516 0 -0.637421
    outer loop
      vertex 0.190984 -0.849999 0.412215
      vertex 0.271031 -0.0896513 0.315454
      vertex 0.271031 -0.849999 0.315454
    endloop
  endfacet
  facet normal -0.770516 0 -0.637421
    outer loop
      vertex 0.271031 -0.0896513 0.315454
      vertex 0.190984 -0.849999 0.412215
      vertex 0.190984 -0.0832244 0.412215
    endloop
  endfacet
  facet normal 0.481758 0 -0.876304
    outer loop
      vertex 17.9858 -0.104282 0.0951738
      vertex 18.0958 -0.849999 0.155673
      vertex 17.9858 -0.849999 0.0951738
    endloop
  endfacet
  facet normal 0.481758 0 -0.876304
    outer loop
      vertex 18.0958 -0.849999 0.155673
      vertex 17.9858 -0.104282 0.0951738
      vertex 18.0958 -0.100264 0.155673
    endloop
  endfacet
  facet normal 0.125334 0 -0.992115
    outer loop
      vertex 17.6228 -0.849999 0.00197411
      vertex 17.7474 -0.109427 0.0177135
      vertex 17.7474 -0.849999 0.0177135
    endloop
  endfacet
  facet normal 0.125334 0 -0.992115
    outer loop
      vertex 17.7474 -0.109427 0.0177135
      vertex 17.6228 -0.849999 0.00197411
      vertex 17.6228 -0.110473 0.00197411
    endloop
  endfacet
  facet normal -0.844325 0 0.535831
    outer loop
      vertex 0.190984 -0.849999 11.0778
      vertex 0.123693 0.618139 10.9718
      vertex 0.123693 -0.849999 10.9718
    endloop
  endfacet
  facet normal -0.844325 0 0.535831
    outer loop
      vertex 0.123693 0.618139 10.9718
      vertex 0.190984 -0.849999 11.0778
      vertex 0.190984 0.625182 11.0778
    endloop
  endfacet
  facet normal 1 -0 0
    outer loop
      vertex 18.56 -0.849999 10.49
      vertex 18.56 -0.0441838 1
      vertex 18.56 0.586141 10.49
    endloop
  endfacet
  facet normal 1 0 0
    outer loop
      vertex 18.56 -0.0441838 1
      vertex 18.56 -0.849999 10.49
      vertex 18.56 -0.849999 1
    endloop
  endfacet
  facet normal 0.844322 -0 0.535836
    outer loop
      vertex 18.369 -0.849999 11.0778
      vertex 18.4363 0.618139 10.9718
      vertex 18.369 0.625182 11.0778
    endloop
  endfacet
  facet normal 0.844322 0 0.535836
    outer loop
      vertex 18.4363 0.618139 10.9718
      vertex 18.369 -0.849999 11.0778
      vertex 18.4363 -0.849999 10.9718
    endloop
  endfacet
  facet normal 0.481758 -0 0.876304
    outer loop
      vertex 17.9858 -0.849999 11.3948
      vertex 18.0958 0.642221 11.3343
      vertex 17.9858 0.64624 11.3948
    endloop
  endfacet
  facet normal 0.481758 0 0.876304
    outer loop
      vertex 18.0958 0.642221 11.3343
      vertex 17.9858 -0.849999 11.3948
      vertex 18.0958 -0.849999 11.3343
    endloop
  endfacet
  facet normal -0.248685 0 -0.968585
    outer loop
      vertex 0.690984 -0.849999 0.0489435
      vertex 0.812619 -0.109427 0.0177135
      vertex 0.812619 -0.849999 0.0177135
    endloop
  endfacet
  facet normal -0.248685 0 -0.968585
    outer loop
      vertex 0.812619 -0.109427 0.0177135
      vertex 0.690984 -0.849999 0.0489435
      vertex 0.690984 -0.107353 0.0489435
    endloop
  endfacet
  facet normal -0.481751 0 -0.876308
    outer loop
      vertex 0.464173 -0.849999 0.155673
      vertex 0.574222 -0.104282 0.0951738
      vertex 0.574222 -0.849999 0.0951738
    endloop
  endfacet
  facet normal -0.481751 0 -0.876308
    outer loop
      vertex 0.574222 -0.104282 0.0951738
      vertex 0.464173 -0.849999 0.155673
      vertex 0.464173 -0.100264 0.155673
    endloop
  endfacet
  facet normal -0.368131 0 -0.929774
    outer loop
      vertex 0.574222 -0.849999 0.0951738
      vertex 0.690984 -0.107353 0.0489435
      vertex 0.690984 -0.849999 0.0489435
    endloop
  endfacet
  facet normal -0.368131 0 -0.929774
    outer loop
      vertex 0.690984 -0.107353 0.0489435
      vertex 0.574222 -0.849999 0.0951738
      vertex 0.574222 -0.104282 0.0951738
    endloop
  endfacet
  facet normal -0.587785 0 -0.809017
    outer loop
      vertex 0.362576 -0.849999 0.229487
      vertex 0.464173 -0.100264 0.155673
      vertex 0.464173 -0.849999 0.155673
    endloop
  endfacet
  facet normal -0.587785 0 -0.809017
    outer loop
      vertex 0.464173 -0.100264 0.155673
      vertex 0.362576 -0.849999 0.229487
      vertex 0.362576 -0.0953611 0.229487
    endloop
  endfacet
  facet normal -0.684545 0 -0.72897
    outer loop
      vertex 0.271031 -0.849999 0.315454
      vertex 0.362576 -0.0953611 0.229487
      vertex 0.362576 -0.849999 0.229487
    endloop
  endfacet
  facet normal -0.684545 0 -0.72897
    outer loop
      vertex 0.362576 -0.0953611 0.229487
      vertex 0.271031 -0.849999 0.315454
      vertex 0.271031 -0.0896513 0.315454
    endloop
  endfacet
  facet normal -0.844325 0 -0.535831
    outer loop
      vertex 0.123693 -0.849999 0.518247
      vertex 0.190984 -0.0832244 0.412215
      vertex 0.190984 -0.849999 0.412215
    endloop
  endfacet
  facet normal -0.844325 0 -0.535831
    outer loop
      vertex 0.190984 -0.0832244 0.412215
      vertex 0.123693 -0.849999 0.518247
      vertex 0.123693 -0.0761818 0.518247
    endloop
  endfacet
  facet normal -0.998026 0 -0.0627958
    outer loop
      vertex 0 -0.849999 1
      vertex 0.00788593 -0.0525084 0.874667
      vertex 0.00788593 -0.849999 0.874667
    endloop
  endfacet
  facet normal -0.998026 0 -0.0627958
    outer loop
      vertex 0.00788593 -0.0525084 0.874667
      vertex 0 -0.849999 1
      vertex 0 -0.0441838 1
    endloop
  endfacet
  facet normal -0.982288 0 -0.187377
    outer loop
      vertex 0.00788593 -0.849999 0.874667
      vertex 0.0314169 -0.0607017 0.75131
      vertex 0.0314169 -0.849999 0.75131
    endloop
  endfacet
  facet normal -0.982288 0 -0.187377
    outer loop
      vertex 0.0314169 -0.0607017 0.75131
      vertex 0.00788593 -0.849999 0.874667
      vertex 0.00788593 -0.0525084 0.874667
    endloop
  endfacet
  facet normal 0.904825 0 -0.425784
    outer loop
      vertex 18.4898 -0.849999 0.631876
      vertex 18.4363 -0.0761818 0.518247
      vertex 18.4898 -0.0686345 0.631876
    endloop
  endfacet
  facet normal 0.904825 0 -0.425784
    outer loop
      vertex 18.4363 -0.0761818 0.518247
      vertex 18.4898 -0.849999 0.631876
      vertex 18.4363 -0.849999 0.518247
    endloop
  endfacet
  facet normal 0.248685 0 -0.968585
    outer loop
      vertex 17.7474 -0.109427 0.0177135
      vertex 17.869 -0.849999 0.0489435
      vertex 17.7474 -0.849999 0.0177135
    endloop
  endfacet
  facet normal 0.248685 0 -0.968585
    outer loop
      vertex 17.869 -0.849999 0.0489435
      vertex 17.7474 -0.109427 0.0177135
      vertex 17.869 -0.107353 0.0489435
    endloop
  endfacet
  facet normal -0.951056 0 0.309019
    outer loop
      vertex 0.0702238 -0.849999 10.8581
      vertex 0.0314169 0.602659 10.7387
      vertex 0.0314169 -0.849999 10.7387
    endloop
  endfacet
  facet normal -0.951056 0 0.309019
    outer loop
      vertex 0.0314169 0.602659 10.7387
      vertex 0.0702238 -0.849999 10.8581
      vertex 0.0702238 0.610592 10.8581
    endloop
  endfacet
  facet normal -0.481751 0 0.876308
    outer loop
      vertex 0.464173 0.642221 11.3343
      vertex 0.574222 -0.849999 11.3948
      vertex 0.574222 0.64624 11.3948
    endloop
  endfacet
  facet normal -0.481751 0 0.876308
    outer loop
      vertex 0.574222 -0.849999 11.3948
      vertex 0.464173 0.642221 11.3343
      vertex 0.464173 -0.849999 11.3343
    endloop
  endfacet
  facet normal -0.684545 0 0.72897
    outer loop
      vertex 0.271031 0.631609 11.1745
      vertex 0.362576 -0.849999 11.2605
      vertex 0.362576 0.637319 11.2605
    endloop
  endfacet
  facet normal -0.684545 0 0.72897
    outer loop
      vertex 0.362576 -0.849999 11.2605
      vertex 0.271031 0.631609 11.1745
      vertex 0.271031 -0.849999 11.1745
    endloop
  endfacet
  facet normal -0.770516 0 0.637421
    outer loop
      vertex 0.271031 -0.849999 11.1745
      vertex 0.190984 0.625182 11.0778
      vertex 0.190984 -0.849999 11.0778
    endloop
  endfacet
  facet normal -0.770516 0 0.637421
    outer loop
      vertex 0.190984 0.625182 11.0778
      vertex 0.271031 -0.849999 11.1745
      vertex 0.271031 0.631609 11.1745
    endloop
  endfacet
  facet normal 0.982291 -0 0.187362
    outer loop
      vertex 18.5286 -0.849999 10.7387
      vertex 18.5521 0.594466 10.6153
      vertex 18.5286 0.602659 10.7387
    endloop
  endfacet
  facet normal 0.982291 0 0.187362
    outer loop
      vertex 18.5521 0.594466 10.6153
      vertex 18.5286 -0.849999 10.7387
      vertex 18.5521 -0.849999 10.6153
    endloop
  endfacet
  facet normal 0.904825 -0 0.425784
    outer loop
      vertex 18.4363 -0.849999 10.9718
      vertex 18.4898 0.610592 10.8581
      vertex 18.4363 0.618139 10.9718
    endloop
  endfacet
  facet normal 0.904825 0 0.425784
    outer loop
      vertex 18.4898 0.610592 10.8581
      vertex 18.4363 -0.849999 10.9718
      vertex 18.4898 -0.849999 10.8581
    endloop
  endfacet
  facet normal 0.368126 -0 0.929776
    outer loop
      vertex 17.869 -0.849999 11.4411
      vertex 17.9858 0.64624 11.3948
      vertex 17.869 0.64931 11.4411
    endloop
  endfacet
  facet normal 0.368126 0 0.929776
    outer loop
      vertex 17.9858 0.64624 11.3948
      vertex 17.869 -0.849999 11.4411
      vertex 17.9858 -0.849999 11.3948
    endloop
  endfacet
  facet normal 0.125334 0 0.992115
    outer loop
      vertex 17.6228 0.65243 11.488
      vertex 17.7474 -0.849999 11.4723
      vertex 17.7474 0.651385 11.4723
    endloop
  endfacet
  facet normal 0.125334 0 0.992115
    outer loop
      vertex 17.7474 -0.849999 11.4723
      vertex 17.6228 0.65243 11.488
      vertex 17.6228 -0.849999 11.488
    endloop
  endfacet
  facet normal -0.904828 0 -0.425778
    outer loop
      vertex 0.0702238 -0.849999 0.631876
      vertex 0.123693 -0.0761818 0.518247
      vertex 0.123693 -0.849999 0.518247
    endloop
  endfacet
  facet normal -0.904828 0 -0.425778
    outer loop
      vertex 0.123693 -0.0761818 0.518247
      vertex 0.0702238 -0.849999 0.631876
      vertex 0.0702238 -0.0686345 0.631876
    endloop
  endfacet
  facet normal -0.951056 0 -0.309019
    outer loop
      vertex 0.0314169 -0.849999 0.75131
      vertex 0.0702238 -0.0686345 0.631876
      vertex 0.0702238 -0.849999 0.631876
    endloop
  endfacet
  facet normal -0.951056 0 -0.309019
    outer loop
      vertex 0.0702238 -0.0686345 0.631876
      vertex 0.0314169 -0.849999 0.75131
      vertex 0.0314169 -0.0607017 0.75131
    endloop
  endfacet
  facet normal -0.904828 0 0.425778
    outer loop
      vertex 0.123693 -0.849999 10.9718
      vertex 0.0702238 0.610592 10.8581
      vertex 0.0702238 -0.849999 10.8581
    endloop
  endfacet
  facet normal -0.904828 0 0.425778
    outer loop
      vertex 0.0702238 0.610592 10.8581
      vertex 0.123693 -0.849999 10.9718
      vertex 0.123693 0.618139 10.9718
    endloop
  endfacet
  facet normal -0.125333 0 0.992115
    outer loop
      vertex 0.812619 0.651385 11.4723
      vertex 0.93721 -0.849999 11.488
      vertex 0.93721 0.65243 11.488
    endloop
  endfacet
  facet normal -0.125333 0 0.992115
    outer loop
      vertex 0.93721 -0.849999 11.488
      vertex 0.812619 0.651385 11.4723
      vertex 0.812619 -0.849999 11.4723
    endloop
  endfacet
  facet normal -0.248685 0 0.968585
    outer loop
      vertex 0.690984 0.64931 11.4411
      vertex 0.812619 -0.849999 11.4723
      vertex 0.812619 0.651385 11.4723
    endloop
  endfacet
  facet normal -0.248685 0 0.968585
    outer loop
      vertex 0.812619 -0.849999 11.4723
      vertex 0.690984 0.64931 11.4411
      vertex 0.690984 -0.849999 11.4411
    endloop
  endfacet
  facet normal -0.587785 0 0.809017
    outer loop
      vertex 0.362576 0.637319 11.2605
      vertex 0.464173 -0.849999 11.3343
      vertex 0.464173 0.642221 11.3343
    endloop
  endfacet
  facet normal -0.587785 0 0.809017
    outer loop
      vertex 0.464173 -0.849999 11.3343
      vertex 0.362576 0.637319 11.2605
      vertex 0.362576 -0.849999 11.2605
    endloop
  endfacet
  facet normal 0.998026 -0 0.0628033
    outer loop
      vertex 18.5521 -0.849999 10.6153
      vertex 18.56 0.586141 10.49
      vertex 18.5521 0.594466 10.6153
    endloop
  endfacet
  facet normal 0.998026 0 0.0628033
    outer loop
      vertex 18.56 0.586141 10.49
      vertex 18.5521 -0.849999 10.6153
      vertex 18.56 -0.849999 10.49
    endloop
  endfacet
  facet normal 0.770516 -0 0.637421
    outer loop
      vertex 18.289 -0.849999 11.1745
      vertex 18.369 0.625182 11.0778
      vertex 18.289 0.631609 11.1745
    endloop
  endfacet
  facet normal 0.770516 0 0.637421
    outer loop
      vertex 18.369 0.625182 11.0778
      vertex 18.289 -0.849999 11.1745
      vertex 18.369 -0.849999 11.0778
    endloop
  endfacet
  facet normal 0.587785 -0 0.809017
    outer loop
      vertex 18.0958 -0.849999 11.3343
      vertex 18.1974 0.637319 11.2605
      vertex 18.0958 0.642221 11.3343
    endloop
  endfacet
  facet normal 0.587785 0 0.809017
    outer loop
      vertex 18.1974 0.637319 11.2605
      vertex 18.0958 -0.849999 11.3343
      vertex 18.1974 -0.849999 11.2605
    endloop
  endfacet
  facet normal 0.684545 -0 0.72897
    outer loop
      vertex 18.1974 -0.849999 11.2605
      vertex 18.289 0.631609 11.1745
      vertex 18.1974 0.637319 11.2605
    endloop
  endfacet
  facet normal 0.684545 0 0.72897
    outer loop
      vertex 18.289 0.631609 11.1745
      vertex 18.1974 -0.849999 11.2605
      vertex 18.289 -0.849999 11.1745
    endloop
  endfacet
  facet normal 0.248685 -0 0.968585
    outer loop
      vertex 17.7474 -0.849999 11.4723
      vertex 17.869 0.64931 11.4411
      vertex 17.7474 0.651385 11.4723
    endloop
  endfacet
  facet normal 0.248685 0 0.968585
    outer loop
      vertex 17.869 0.64931 11.4411
      vertex 17.7474 -0.849999 11.4723
      vertex 17.869 -0.849999 11.4411
    endloop
  endfacet
  facet normal 0.982291 0 -0.187362
    outer loop
      vertex 18.5521 -0.849999 0.874667
      vertex 18.5286 -0.0607017 0.75131
      vertex 18.5521 -0.0525084 0.874667
    endloop
  endfacet
  facet normal 0.982291 0 -0.187362
    outer loop
      vertex 18.5286 -0.0607017 0.75131
      vertex 18.5521 -0.849999 0.874667
      vertex 18.5286 -0.849999 0.75131
    endloop
  endfacet
  facet normal 0.951056 0 -0.309019
    outer loop
      vertex 18.5286 -0.849999 0.75131
      vertex 18.4898 -0.0686345 0.631876
      vertex 18.5286 -0.0607017 0.75131
    endloop
  endfacet
  facet normal 0.951056 0 -0.309019
    outer loop
      vertex 18.4898 -0.0686345 0.631876
      vertex 18.5286 -0.849999 0.75131
      vertex 18.4898 -0.849999 0.631876
    endloop
  endfacet
  facet normal 0.998026 0 -0.0628033
    outer loop
      vertex 18.56 -0.849999 1
      vertex 18.5521 -0.0525084 0.874667
      vertex 18.56 -0.0441838 1
    endloop
  endfacet
  facet normal 0.998026 0 -0.0628033
    outer loop
      vertex 18.5521 -0.0525084 0.874667
      vertex 18.56 -0.849999 1
      vertex 18.5521 -0.849999 0.874667
    endloop
  endfacet
  facet normal 0.587785 0 -0.809017
    outer loop
      vertex 18.0958 -0.100264 0.155673
      vertex 18.1974 -0.849999 0.229487
      vertex 18.0958 -0.849999 0.155673
    endloop
  endfacet
  facet normal 0.587785 0 -0.809017
    outer loop
      vertex 18.1974 -0.849999 0.229487
      vertex 18.0958 -0.100264 0.155673
      vertex 18.1974 -0.0953611 0.229487
    endloop
  endfacet
  facet normal 0.684545 0 -0.72897
    outer loop
      vertex 18.1974 -0.0953611 0.229487
      vertex 18.289 -0.849999 0.315454
      vertex 18.1974 -0.849999 0.229487
    endloop
  endfacet
  facet normal 0.684545 0 -0.72897
    outer loop
      vertex 18.289 -0.849999 0.315454
      vertex 18.1974 -0.0953611 0.229487
      vertex 18.289 -0.0896513 0.315454
    endloop
  endfacet
  facet normal 0.770516 0 -0.637421
    outer loop
      vertex 18.369 -0.849999 0.412215
      vertex 18.289 -0.0896513 0.315454
      vertex 18.369 -0.0832244 0.412215
    endloop
  endfacet
  facet normal 0.770516 0 -0.637421
    outer loop
      vertex 18.289 -0.0896513 0.315454
      vertex 18.369 -0.849999 0.412215
      vertex 18.289 -0.849999 0.315454
    endloop
  endfacet
  facet normal 0.844322 0 -0.535836
    outer loop
      vertex 18.4363 -0.849999 0.518247
      vertex 18.369 -0.0832244 0.412215
      vertex 18.4363 -0.0761818 0.518247
    endloop
  endfacet
  facet normal 0.844322 0 -0.535836
    outer loop
      vertex 18.369 -0.0832244 0.412215
      vertex 18.4363 -0.849999 0.518247
      vertex 18.369 -0.849999 0.412215
    endloop
  endfacet
  facet normal 0 0.997801 -0.0662739
    outer loop
      vertex 4.84862 0.0824292 2.90625
      vertex 4.84862 0.459528 8.58375
      vertex 13.7114 0.0824292 2.90625
    endloop
  endfacet
  facet normal -1.05776e-008 0.997801 -0.0662739
    outer loop
      vertex 4.84862 0.459528 8.58375
      vertex 4.84862 0.0824292 2.90625
      vertex 4.25737 0.1217 3.4975
    endloop
  endfacet
  facet normal 0 0.997801 -0.0662739
    outer loop
      vertex 13.7114 0.459528 8.58375
      vertex 13.7114 0.0824292 2.90625
      vertex 4.84862 0.459528 8.58375
    endloop
  endfacet
  facet normal -2.75378e-008 0.997801 -0.0662739
    outer loop
      vertex 4.84862 0.459528 8.58375
      vertex 4.25737 0.1217 3.4975
      vertex 4.25737 0.420257 7.9925
    endloop
  endfacet
  facet normal -5.50298e-008 0.997801 -0.0662739
    outer loop
      vertex 18.56 0.586141 10.49
      vertex 17.6228 0.65243 11.488
      vertex 17.7474 0.651385 11.4723
    endloop
  endfacet
  facet normal 0 0.997801 -0.0662739
    outer loop
      vertex 17.6228 0.65243 11.488
      vertex 15.1885 0.522378 9.53
      vertex 0.93721 0.65243 11.488
    endloop
  endfacet
  facet normal 1.01203e-007 0.997801 -0.0662738
    outer loop
      vertex 18.56 0.586141 10.49
      vertex 17.7474 0.651385 11.4723
      vertex 17.869 0.64931 11.4411
    endloop
  endfacet
  facet normal 0 0.997801 -0.0662739
    outer loop
      vertex 3.37149 0.522378 9.53
      vertex 0.93721 0.65243 11.488
      vertex 15.1885 0.522378 9.53
    endloop
  endfacet
  facet normal -2.32808e-007 0.997801 -0.066274
    outer loop
      vertex 18.56 0.586141 10.49
      vertex 17.869 0.64931 11.4411
      vertex 17.9858 0.64624 11.3948
    endloop
  endfacet
  facet normal 1.06314e-008 0.997801 -0.0662739
    outer loop
      vertex 0 0.586141 10.49
      vertex 0.93721 0.65243 11.488
      vertex 3.37149 0.522378 9.53
    endloop
  endfacet
  facet normal 2.18721e-007 0.997801 -0.0662737
    outer loop
      vertex 18.56 0.586141 10.49
      vertex 17.9858 0.64624 11.3948
      vertex 18.0958 0.642221 11.3343
    endloop
  endfacet
  facet normal 5.50293e-008 0.997801 -0.0662739
    outer loop
      vertex 0.93721 0.65243 11.488
      vertex 0 0.586141 10.49
      vertex 0.812619 0.651385 11.4723
    endloop
  endfacet
  facet normal -3.79368e-007 0.997801 -0.0662741
    outer loop
      vertex 18.56 0.586141 10.49
      vertex 18.0958 0.642221 11.3343
      vertex 18.1974 0.637319 11.2605
    endloop
  endfacet
  facet normal -1.01203e-007 0.997801 -0.0662738
    outer loop
      vertex 0.812619 0.651385 11.4723
      vertex 0 0.586141 10.49
      vertex 0.690984 0.64931 11.4411
    endloop
  endfacet
  facet normal 4.79551e-007 0.997801 -0.0662737
    outer loop
      vertex 18.56 0.586141 10.49
      vertex 18.1974 0.637319 11.2605
      vertex 18.289 0.631609 11.1745
    endloop
  endfacet
  facet normal 2.32814e-007 0.997801 -0.066274
    outer loop
      vertex 0.690984 0.64931 11.4411
      vertex 0 0.586141 10.49
      vertex 0.574222 0.64624 11.3948
    endloop
  endfacet
  facet normal -7.20111e-007 0.997801 -0.0662741
    outer loop
      vertex 18.56 0.586141 10.49
      vertex 18.289 0.631609 11.1745
      vertex 18.369 0.625182 11.0778
    endloop
  endfacet
  facet normal -2.18716e-007 0.997801 -0.0662737
    outer loop
      vertex 0.574222 0.64624 11.3948
      vertex 0 0.586141 10.49
      vertex 0.464173 0.642221 11.3343
    endloop
  endfacet
  facet normal 1.4188e-006 0.997801 -0.0662734
    outer loop
      vertex 18.56 0.586141 10.49
      vertex 18.369 0.625182 11.0778
      vertex 18.4363 0.618139 10.9718
    endloop
  endfacet
  facet normal 3.79368e-007 0.997801 -0.0662741
    outer loop
      vertex 0.464173 0.642221 11.3343
      vertex 0 0.586141 10.49
      vertex 0.362576 0.637319 11.2605
    endloop
  endfacet
  facet normal -1.74674e-006 0.997801 -0.0662743
    outer loop
      vertex 18.56 0.586141 10.49
      vertex 18.4363 0.618139 10.9718
      vertex 18.4898 0.610592 10.8581
    endloop
  endfacet
  facet normal -4.7955e-007 0.997801 -0.0662737
    outer loop
      vertex 0.362576 0.637319 11.2605
      vertex 0 0.586141 10.49
      vertex 0.271031 0.631609 11.1745
    endloop
  endfacet
  facet normal 1.09202e-006 0.997801 -0.0662737
    outer loop
      vertex 18.56 0.586141 10.49
      vertex 18.4898 0.610592 10.8581
      vertex 18.5286 0.602659 10.7387
    endloop
  endfacet
  facet normal 7.20108e-007 0.997801 -0.0662741
    outer loop
      vertex 0.271031 0.631609 11.1745
      vertex 0 0.586141 10.49
      vertex 0.190984 0.625182 11.0778
    endloop
  endfacet
  facet normal 3.56244e-006 0.997802 -0.0662734
    outer loop
      vertex 18.56 0.586141 10.49
      vertex 18.5286 0.602659 10.7387
      vertex 18.5521 0.594466 10.6153
    endloop
  endfacet
  facet normal -1.41884e-006 0.997801 -0.0662734
    outer loop
      vertex 0.190984 0.625182 11.0778
      vertex 0 0.586141 10.49
      vertex 0.123693 0.618139 10.9718
    endloop
  endfacet
  facet normal -1.06314e-008 0.997801 -0.0662739
    outer loop
      vertex 17.6228 0.65243 11.488
      vertex 18.56 0.586141 10.49
      vertex 15.1885 0.522378 9.53
    endloop
  endfacet
  facet normal 1.74681e-006 0.997801 -0.0662743
    outer loop
      vertex 0.123693 0.618139 10.9718
      vertex 0 0.586141 10.49
      vertex 0.0702238 0.610592 10.8581
    endloop
  endfacet
  facet normal -1.09204e-006 0.997801 -0.0662737
    outer loop
      vertex 0.0702238 0.610592 10.8581
      vertex 0 0.586141 10.49
      vertex 0.0314169 0.602659 10.7387
    endloop
  endfacet
  facet normal -5.73982e-009 0.997801 -0.0662739
    outer loop
      vertex 18.56 0.586141 10.49
      vertex 16.726 0.420257 7.9925
      vertex 15.1885 0.522378 9.53
    endloop
  endfacet
  facet normal 0 0.997801 -0.0662739
    outer loop
      vertex 15.88 0.378745 7.3675
      vertex 14.3026 0.420257 7.9925
      vertex 16.726 0.420257 7.9925
    endloop
  endfacet
  facet normal -1.25743e-008 0.997801 -0.0662739
    outer loop
      vertex 15.88 0.163212 4.1225
      vertex 14.3026 0.420257 7.9925
      vertex 15.88 0.378745 7.3675
    endloop
  endfacet
  facet normal 0 0.997801 -0.0662739
    outer loop
      vertex 15.88 0.378745 7.3675
      vertex 16.726 0.420257 7.9925
      vertex 16.73 0.378745 7.3675
    endloop
  endfacet
  facet normal -4.4507e-008 0.997801 -0.0662739
    outer loop
      vertex 18.56 0.586141 10.49
      vertex 16.73 0.378745 7.3675
      vertex 16.726 0.420257 7.9925
    endloop
  endfacet
  facet normal 9.15688e-009 0.997801 -0.0662739
    outer loop
      vertex 18.56 0.586141 10.49
      vertex 16.73 0.163212 4.1225
      vertex 16.73 0.378745 7.3675
    endloop
  endfacet
  facet normal 0 0.997801 -0.0662739
    outer loop
      vertex 16.726 0.1217 3.4975
      vertex 15.88 0.163212 4.1225
      vertex 16.73 0.163212 4.1225
    endloop
  endfacet
  facet normal 1.03882e-008 0.997801 -0.0662739
    outer loop
      vertex 4.25737 0.420257 7.9925
      vertex 4.25737 0.1217 3.4975
      vertex 2.68 0.378745 7.3675
    endloop
  endfacet
  facet normal 0 0.997801 -0.0662739
    outer loop
      vertex 15.88 0.163212 4.1225
      vertex 16.726 0.1217 3.4975
      vertex 14.3026 0.1217 3.4975
    endloop
  endfacet
  facet normal -4.4892e-009 0.997801 -0.0662739
    outer loop
      vertex 18.56 -0.0441838 1
      vertex 16.73 0.163212 4.1225
      vertex 18.56 0.586141 10.49
    endloop
  endfacet
  facet normal -1.27909e-009 0.997801 -0.0662739
    outer loop
      vertex 17.6228 -0.110473 0.00197411
      vertex 15.1885 0.0195793 1.96
      vertex 18.56 -0.0441838 1
    endloop
  endfacet
  facet normal 5.80509e-011 0.997801 -0.0662739
    outer loop
      vertex 16.726 0.1217 3.4975
      vertex 18.56 -0.0441838 1
      vertex 15.1885 0.0195793 1.96
    endloop
  endfacet
  facet normal 2.3508e-009 0.997801 -0.0662739
    outer loop
      vertex 16.73 0.163212 4.1225
      vertex 18.56 -0.0441838 1
      vertex 16.726 0.1217 3.4975
    endloop
  endfacet
  facet normal -3.5618e-006 0.997802 -0.0662734
    outer loop
      vertex 0.0314169 0.602659 10.7387
      vertex 0 0.586141 10.49
      vertex 0.00788593 0.594466 10.6153
    endloop
  endfacet
  facet normal 5.73982e-009 0.997801 -0.0662739
    outer loop
      vertex 1.83399 0.420257 7.9925
      vertex 0 0.586141 10.49
      vertex 3.37149 0.522378 9.53
    endloop
  endfacet
  facet normal 1.05776e-008 0.997801 -0.0662739
    outer loop
      vertex 13.7114 0.0824292 2.90625
      vertex 13.7114 0.459528 8.58375
      vertex 14.3026 0.1217 3.4975
    endloop
  endfacet
  facet normal 0 0.997801 -0.0662739
    outer loop
      vertex 4.25737 0.420257 7.9925
      vertex 2.68 0.378745 7.3675
      vertex 1.83399 0.420257 7.9925
    endloop
  endfacet
  facet normal 0 0.997801 -0.0662739
    outer loop
      vertex 1.83 0.378745 7.3675
      vertex 1.83399 0.420257 7.9925
      vertex 2.68 0.378745 7.3675
    endloop
  endfacet
  facet normal 4.45069e-008 0.997801 -0.0662739
    outer loop
      vertex 1.83 0.378745 7.3675
      vertex 0 0.586141 10.49
      vertex 1.83399 0.420257 7.9925
    endloop
  endfacet
  facet normal -9.15688e-009 0.997801 -0.0662739
    outer loop
      vertex 1.83 0.163212 4.1225
      vertex 0 0.586141 10.49
      vertex 1.83 0.378745 7.3675
    endloop
  endfacet
  facet normal -3.14827e-009 0.997801 -0.0662739
    outer loop
      vertex 2.68 0.378745 7.3675
      vertex 4.25737 0.1217 3.4975
      vertex 2.68 0.163212 4.1225
    endloop
  endfacet
  facet normal 0 0.997801 -0.0662739
    outer loop
      vertex 1.83399 0.1217 3.4975
      vertex 2.68 0.163212 4.1225
      vertex 4.25737 0.1217 3.4975
    endloop
  endfacet
  facet normal 0 0.997801 -0.0662739
    outer loop
      vertex 2.68 0.163212 4.1225
      vertex 1.83399 0.1217 3.4975
      vertex 1.83 0.163212 4.1225
    endloop
  endfacet
  facet normal -2.3508e-009 0.997801 -0.0662739
    outer loop
      vertex 0 -0.0441838 1
      vertex 1.83 0.163212 4.1225
      vertex 1.83399 0.1217 3.4975
    endloop
  endfacet
  facet normal 4.4892e-009 0.997801 -0.0662739
    outer loop
      vertex 1.83 0.163212 4.1225
      vertex 0 -0.0441838 1
      vertex 0 0.586141 10.49
    endloop
  endfacet
  facet normal -5.80509e-011 0.997801 -0.0662739
    outer loop
      vertex 3.37149 0.0195793 1.96
      vertex 0 -0.0441838 1
      vertex 1.83399 0.1217 3.4975
    endloop
  endfacet
  facet normal 0 0.997801 -0.0662739
    outer loop
      vertex 15.1885 0.0195793 1.96
      vertex 17.6228 -0.110473 0.00197411
      vertex 3.37149 0.0195793 1.96
    endloop
  endfacet
  facet normal 4.17456e-009 0.997801 -0.0662739
    outer loop
      vertex 17.6228 -0.110473 0.00197411
      vertex 18.56 -0.0441838 1
      vertex 18.5521 -0.0525084 0.874667
    endloop
  endfacet
  facet normal 0 0.997801 -0.0662739
    outer loop
      vertex 0.93721 -0.110473 0.00197411
      vertex 3.37149 0.0195793 1.96
      vertex 17.6228 -0.110473 0.00197411
    endloop
  endfacet
  facet normal -2.0985e-008 0.997801 -0.0662739
    outer loop
      vertex 17.6228 -0.110473 0.00197411
      vertex 18.5521 -0.0525084 0.874667
      vertex 18.5286 -0.0607017 0.75131
    endloop
  endfacet
  facet normal 1.27909e-009 0.997801 -0.0662739
    outer loop
      vertex 3.37149 0.0195793 1.96
      vertex 0.93721 -0.110473 0.00197411
      vertex 0 -0.0441838 1
    endloop
  endfacet
  facet normal -1.10524e-008 0.997801 -0.0662739
    outer loop
      vertex 17.6228 -0.110473 0.00197411
      vertex 18.5286 -0.0607017 0.75131
      vertex 18.4898 -0.0686345 0.631876
    endloop
  endfacet
  facet normal -4.17453e-009 0.997801 -0.0662739
    outer loop
      vertex 0 -0.0441838 1
      vertex 0.93721 -0.110473 0.00197411
      vertex 0.00788593 -0.0525084 0.874667
    endloop
  endfacet
  facet normal -2.40512e-009 0.997801 -0.0662739
    outer loop
      vertex 17.6228 -0.110473 0.00197411
      vertex 18.4898 -0.0686345 0.631876
      vertex 18.4363 -0.0761818 0.518247
    endloop
  endfacet
  facet normal 2.09853e-008 0.997801 -0.0662739
    outer loop
      vertex 0.00788593 -0.0525084 0.874667
      vertex 0.93721 -0.110473 0.00197411
      vertex 0.0314169 -0.0607017 0.75131
    endloop
  endfacet
  facet normal 3.00697e-008 0.997801 -0.0662739
    outer loop
      vertex 17.6228 -0.110473 0.00197411
      vertex 18.4363 -0.0761818 0.518247
      vertex 18.369 -0.0832244 0.412215
    endloop
  endfacet
  facet normal 1.10525e-008 0.997801 -0.0662739
    outer loop
      vertex 0.0314169 -0.0607017 0.75131
      vertex 0.93721 -0.110473 0.00197411
      vertex 0.0702238 -0.0686345 0.631876
    endloop
  endfacet
  facet normal -3.78634e-008 0.997801 -0.0662738
    outer loop
      vertex 17.6228 -0.110473 0.00197411
      vertex 18.369 -0.0832244 0.412215
      vertex 18.289 -0.0896513 0.315454
    endloop
  endfacet
  facet normal 2.4051e-009 0.997801 -0.0662739
    outer loop
      vertex 0.0702238 -0.0686345 0.631876
      vertex 0.93721 -0.110473 0.00197411
      vertex 0.123693 -0.0761818 0.518247
    endloop
  endfacet
  facet normal 1.46368e-008 0.997801 -0.0662739
    outer loop
      vertex 17.6228 -0.110473 0.00197411
      vertex 18.289 -0.0896513 0.315454
      vertex 18.1974 -0.0953611 0.229487
    endloop
  endfacet
  facet normal -3.00694e-008 0.997801 -0.0662739
    outer loop
      vertex 0.123693 -0.0761818 0.518247
      vertex 0.93721 -0.110473 0.00197411
      vertex 0.190984 -0.0832244 0.412215
    endloop
  endfacet
  facet normal -3.9753e-008 0.997801 -0.0662738
    outer loop
      vertex 17.6228 -0.110473 0.00197411
      vertex 18.1974 -0.0953611 0.229487
      vertex 18.0958 -0.100264 0.155673
    endloop
  endfacet
  facet normal 3.78633e-008 0.997801 -0.0662738
    outer loop
      vertex 0.190984 -0.0832244 0.412215
      vertex 0.93721 -0.110473 0.00197411
      vertex 0.271031 -0.0896513 0.315454
    endloop
  endfacet
  facet normal -1.93354e-008 0.997801 -0.0662739
    outer loop
      vertex 17.6228 -0.110473 0.00197411
      vertex 18.0958 -0.100264 0.155673
      vertex 17.9858 -0.104282 0.0951738
    endloop
  endfacet
  facet normal -1.46368e-008 0.997801 -0.0662739
    outer loop
      vertex 0.271031 -0.0896513 0.315454
      vertex 0.93721 -0.110473 0.00197411
      vertex 0.362576 -0.0953611 0.229487
    endloop
  endfacet
  facet normal -8.21993e-009 0.997801 -0.0662739
    outer loop
      vertex 17.6228 -0.110473 0.00197411
      vertex 17.9858 -0.104282 0.0951738
      vertex 17.869 -0.107353 0.0489435
    endloop
  endfacet
  facet normal 3.97529e-008 0.997801 -0.0662738
    outer loop
      vertex 0.362576 -0.0953611 0.229487
      vertex 0.93721 -0.110473 0.00197411
      vertex 0.464173 -0.100264 0.155673
    endloop
  endfacet
  facet normal -2.45e-009 0.997801 -0.0662739
    outer loop
      vertex 17.6228 -0.110473 0.00197411
      vertex 17.869 -0.107353 0.0489435
      vertex 17.7474 -0.109427 0.0177135
    endloop
  endfacet
  facet normal 1.93358e-008 0.997801 -0.0662739
    outer loop
      vertex 0.464173 -0.100264 0.155673
      vertex 0.93721 -0.110473 0.00197411
      vertex 0.574222 -0.104282 0.0951738
    endloop
  endfacet
  facet normal 8.21974e-009 0.997801 -0.0662739
    outer loop
      vertex 0.574222 -0.104282 0.0951738
      vertex 0.93721 -0.110473 0.00197411
      vertex 0.690984 -0.107353 0.0489435
    endloop
  endfacet
  facet normal 2.44996e-009 0.997801 -0.0662739
    outer loop
      vertex 0.690984 -0.107353 0.0489435
      vertex 0.93721 -0.110473 0.00197411
      vertex 0.812619 -0.109427 0.0177135
    endloop
  endfacet
  facet normal 9.62143e-010 0.997801 -0.0662739
    outer loop
      vertex 14.3026 0.1217 3.4975
      vertex 14.3026 0.420257 7.9925
      vertex 15.88 0.163212 4.1225
    endloop
  endfacet
  facet normal 2.75378e-008 0.997801 -0.0662739
    outer loop
      vertex 14.3026 0.420257 7.9925
      vertex 14.3026 0.1217 3.4975
      vertex 13.7114 0.459528 8.58375
    endloop
  endfacet
  facet normal 0 0 -1
    outer loop
      vertex 2.68 1.75 4.12
      vertex 1.33 1.75 4.12
      vertex 2.68 2.7625 4.12
    endloop
  endfacet
  facet normal -0.6 0.8 -1.73889e-007
    outer loop
      vertex 2.68 2.7625 4.12
      vertex 1.33 1.75 4.12
      vertex 2.68 2.7625 6.31375
    endloop
  endfacet
  facet normal -0.6 0.8 0
    outer loop
      vertex 2.68 2.7625 6.31375
      vertex 1.33 1.75 7.37
      vertex 2.68 2.7625 7.37
    endloop
  endfacet
  facet normal -0.6 0.8 0
    outer loop
      vertex 1.33 1.75 7.37
      vertex 2.68 2.7625 6.31375
      vertex 1.33 1.75 4.12
    endloop
  endfacet
  facet normal -7.06426e-007 0 1
    outer loop
      vertex 2.68 2.7625 7.37
      vertex 1.33 1.75 7.37
      vertex 2.68 1.75 7.37
    endloop
  endfacet
  facet normal 1 -0 0
    outer loop
      vertex 2.68 1.75 7.37
      vertex 2.68 2.7625 6.31375
      vertex 2.68 2.7625 7.37
    endloop
  endfacet
  facet normal 1 0 0
    outer loop
      vertex 2.68 1.75 4.12
      vertex 2.68 2.7625 6.31375
      vertex 2.68 1.75 7.37
    endloop
  endfacet
  facet normal 1 0 0
    outer loop
      vertex 2.68 2.7625 6.31375
      vertex 2.68 1.75 4.12
      vertex 2.68 2.7625 4.12
    endloop
  endfacet
  facet normal 0 0 1
    outer loop
      vertex 15.88 2.7625 7.37
      vertex 15.88 1.75 7.37
      vertex 17.23 1.75 7.37
    endloop
  endfacet
  facet normal 0.6 0.8 1.73889e-007
    outer loop
      vertex 15.88 2.7625 5.17625
      vertex 15.88 2.7625 7.37
      vertex 17.23 1.75 7.37
    endloop
  endfacet
  facet normal 0.6 0.8 -0
    outer loop
      vertex 17.23 1.75 4.12
      vertex 15.88 2.7625 5.17625
      vertex 17.23 1.75 7.37
    endloop
  endfacet
  facet normal 0.6 0.8 0
    outer loop
      vertex 15.88 2.7625 5.17625
      vertex 17.23 1.75 4.12
      vertex 15.88 2.7625 4.12
    endloop
  endfacet
  facet normal 3.53213e-007 0 -1
    outer loop
      vertex 17.23 1.75 4.12
      vertex 15.88 1.75 4.12
      vertex 15.88 2.7625 4.12
    endloop
  endfacet
  facet normal -1 0 0
    outer loop
      vertex 15.88 1.75 4.1225
      vertex 15.88 2.7625 5.17625
      vertex 15.88 2.7625 4.12
    endloop
  endfacet
  facet normal -1 0 0
    outer loop
      vertex 15.88 1.75 4.1225
      vertex 15.88 2.7625 4.12
      vertex 15.88 1.75 4.12
    endloop
  endfacet
  facet normal -1 0 0
    outer loop
      vertex 15.88 1.75 7.3675
      vertex 15.88 2.7625 5.17625
      vertex 15.88 1.75 4.1225
    endloop
  endfacet
  facet normal -1 0 0
    outer loop
      vertex 15.88 2.7625 5.17625
      vertex 15.88 1.75 7.3675
      vertex 15.88 2.7625 7.37
    endloop
  endfacet
  facet normal -1 -0 0
    outer loop
      vertex 15.88 2.7625 7.37
      vertex 15.88 1.75 7.3675
      vertex 15.88 1.75 7.37
    endloop
  endfacet
  facet normal 0 0 -1
    outer loop
      vertex 4.84862 0.459528 8.58375
      vertex 13.7114 1.75 8.58375
      vertex 13.7114 0.459528 8.58375
    endloop
  endfacet
  facet normal -0 0 -1
    outer loop
      vertex 13.7114 1.75 8.58375
      vertex 4.84862 0.459528 8.58375
      vertex 4.84862 1.75 8.58375
    endloop
  endfacet
  facet normal -0 0 1
    outer loop
      vertex 4.84862 1.75 2.90625
      vertex 13.7114 0.0824292 2.90625
      vertex 13.7114 1.75 2.90625
    endloop
  endfacet
  facet normal 0 0 1
    outer loop
      vertex 13.7114 0.0824292 2.90625
      vertex 4.84862 1.75 2.90625
      vertex 4.84862 0.0824292 2.90625
    endloop
  endfacet
  facet normal 0.707107 -0 0.707107
    outer loop
      vertex 4.25737 0.1217 3.4975
      vertex 4.84862 1.75 2.90625
      vertex 4.25737 1.75 3.4975
    endloop
  endfacet
  facet normal 0.707107 0 0.707107
    outer loop
      vertex 4.84862 1.75 2.90625
      vertex 4.25737 0.1217 3.4975
      vertex 4.84862 0.0824292 2.90625
    endloop
  endfacet
  facet normal 0.707107 0 -0.707107
    outer loop
      vertex 4.84862 0.459528 8.58375
      vertex 4.25737 1.75 7.9925
      vertex 4.84862 1.75 8.58375
    endloop
  endfacet
  facet normal 0.707107 0 -0.707107
    outer loop
      vertex 4.25737 1.75 7.9925
      vertex 4.84862 0.459528 8.58375
      vertex 4.25737 0.420257 7.9925
    endloop
  endfacet
  facet normal -0.707107 0 -0.707107
    outer loop
      vertex 14.3026 1.75 7.9925
      vertex 13.7114 0.459528 8.58375
      vertex 13.7114 1.75 8.58375
    endloop
  endfacet
  facet normal -0.707107 0 -0.707107
    outer loop
      vertex 13.7114 0.459528 8.58375
      vertex 14.3026 1.75 7.9925
      vertex 14.3026 0.420257 7.9925
    endloop
  endfacet
  facet normal -0.707107 0 0.707107
    outer loop
      vertex 13.7114 1.75 2.90625
      vertex 14.3026 0.1217 3.4975
      vertex 14.3026 1.75 3.4975
    endloop
  endfacet
  facet normal -0.707107 0 0.707107
    outer loop
      vertex 14.3026 0.1217 3.4975
      vertex 13.7114 1.75 2.90625
      vertex 13.7114 0.0824292 2.90625
    endloop
  endfacet
  facet normal 1 -0 0
    outer loop
      vertex 2.68 0.378745 7.3675
      vertex 2.68 1.75 4.1225
      vertex 2.68 1.75 7.3675
    endloop
  endfacet
  facet normal 1 0 0
    outer loop
      vertex 2.68 1.75 4.1225
      vertex 2.68 0.378745 7.3675
      vertex 2.68 0.163212 4.1225
    endloop
  endfacet
  facet normal -1 0 0
    outer loop
      vertex 15.88 1.75 4.1225
      vertex 15.88 0.378745 7.3675
      vertex 15.88 1.75 7.3675
    endloop
  endfacet
  facet normal -1 0 -0
    outer loop
      vertex 15.88 0.378745 7.3675
      vertex 15.88 1.75 4.1225
      vertex 15.88 0.163212 4.1225
    endloop
  endfacet
  facet normal 0 0 -1
    outer loop
      vertex 1.83399 0.420257 7.9925
      vertex 4.25737 1.75 7.9925
      vertex 4.25737 0.420257 7.9925
    endloop
  endfacet
  facet normal -0 0 -1
    outer loop
      vertex 4.25737 1.75 7.9925
      vertex 1.83399 0.420257 7.9925
      vertex 1.83399 1.75 7.9925
    endloop
  endfacet
  facet normal 0 0 -1
    outer loop
      vertex 14.3026 0.420257 7.9925
      vertex 16.726 1.75 7.9925
      vertex 16.726 0.420257 7.9925
    endloop
  endfacet
  facet normal -0 0 -1
    outer loop
      vertex 16.726 1.75 7.9925
      vertex 14.3026 0.420257 7.9925
      vertex 14.3026 1.75 7.9925
    endloop
  endfacet
  facet normal -0 0 1
    outer loop
      vertex 1.83 1.75 7.3675
      vertex 2.68 0.378745 7.3675
      vertex 2.68 1.75 7.3675
    endloop
  endfacet
  facet normal 0 0 1
    outer loop
      vertex 2.68 0.378745 7.3675
      vertex 1.83 1.75 7.3675
      vertex 1.83 0.378745 7.3675
    endloop
  endfacet
  facet normal -0 0 1
    outer loop
      vertex 15.88 1.75 7.3675
      vertex 16.73 0.378745 7.3675
      vertex 16.73 1.75 7.3675
    endloop
  endfacet
  facet normal 0 0 1
    outer loop
      vertex 15.88 1.75 7.3675
      vertex 15.88 0.378745 7.3675
      vertex 16.73 0.378745 7.3675
    endloop
  endfacet
  facet normal 0 0 -1
    outer loop
      vertex 1.83 0.163212 4.1225
      vertex 2.68 1.75 4.1225
      vertex 2.68 0.163212 4.1225
    endloop
  endfacet
  facet normal -0 0 -1
    outer loop
      vertex 2.68 1.75 4.1225
      vertex 1.83 0.163212 4.1225
      vertex 1.83 1.75 4.1225
    endloop
  endfacet
  facet normal 0 0 -1
    outer loop
      vertex 16.73 0.163212 4.1225
      vertex 15.88 1.75 4.1225
      vertex 16.73 1.75 4.1225
    endloop
  endfacet
  facet normal 0 0 -1
    outer loop
      vertex 15.88 0.163212 4.1225
      vertex 15.88 1.75 4.1225
      vertex 16.73 0.163212 4.1225
    endloop
  endfacet
  facet normal -0 0 1
    outer loop
      vertex 1.83399 1.75 3.4975
      vertex 4.25737 0.1217 3.4975
      vertex 4.25737 1.75 3.4975
    endloop
  endfacet
  facet normal 0 0 1
    outer loop
      vertex 4.25737 0.1217 3.4975
      vertex 1.83399 1.75 3.4975
      vertex 1.83399 0.1217 3.4975
    endloop
  endfacet
  facet normal -0 0 1
    outer loop
      vertex 14.3026 1.75 3.4975
      vertex 16.726 0.1217 3.4975
      vertex 16.726 1.75 3.4975
    endloop
  endfacet
  facet normal 0 0 1
    outer loop
      vertex 16.726 0.1217 3.4975
      vertex 14.3026 1.75 3.4975
      vertex 14.3026 0.1217 3.4975
    endloop
  endfacet
endsolid OpenSCAD_Model
